<svg xmlns="http://www.w3.org/2000/svg" viewBox="0 0 64 64"><g data-name="Filled outline"><rect width="14" height="4" x="47" y="3" fill="#44394a" rx="1"/><path fill="#d7e6ef" d="M48 33a1 1 0 0 0-1 1v7c0 7.16 7 9 7 9s7-1.79 7-9v-7a1 1 0 0 0-1-1Z"/><path fill="#7b90a2" d="M56 28v11a2 2 0 0 1-4 0V28Z"/><path fill="#44394a" d="M52 7h4v21h-4z"/><path fill="#332b38" d="M51 7h6v4h-6z"/><path fill="#18cd3e" d="M41.68 24.27c2.07-2.07 5.49-2 5.49-2s0 3.42-2 5.49-5.48 2-5.48 2-.09-3.41 1.99-5.49zm-5.36 0c-2.07-2.07-5.49-2-5.49-2s0 3.42 2 5.49 5.48 2 5.48 2 .09-3.41-1.99-5.49zm.68-6.02A6.78 6.78 0 0 1 39 14a6.78 6.78 0 0 1 2 4.25 6.82 6.82 0 0 1-2 4.25 6.82 6.82 0 0 1-2-4.25zm4.68 15.28c2.48-2.48 6.58-2.42 6.58-2.42s.06 4.1-2.43 6.58-6.58 2.43-6.58 2.43-.06-4.12 2.43-6.59zm-5.36 0c-2.48-2.48-6.58-2.42-6.58-2.42s-.06 4.1 2.43 6.58 6.58 2.43 6.58 2.43.06-4.12-2.43-6.59zm-16.74-2.76A6.81 6.81 0 0 1 24 29.15a6.81 6.81 0 0 1-1.62 4.4A6.83 6.83 0 0 1 18 35.17a6.75 6.75 0 0 1 1.58-4.4zm-4.3 0a6.81 6.81 0 0 0-4.4-1.62 6.81 6.81 0 0 0 1.62 4.4 6.81 6.81 0 0 0 4.4 1.62 6.81 6.81 0 0 0-1.62-4.4zm.58-4.83a5.43 5.43 0 0 1 1.57-3.41A5.43 5.43 0 0 1 19 25.94a5.42 5.42 0 0 1-1.57 3.4 5.42 5.42 0 0 1-1.57-3.4zm3.72 12.26a8.14 8.14 0 0 1 5.28-2 8.14 8.14 0 0 1-1.95 5.28 8.14 8.14 0 0 1-5.28 1.95 8.14 8.14 0 0 1 1.95-5.23zm-4.3 0a8.14 8.14 0 0 0-5.28-2 8.14 8.14 0 0 0 2 5.33 8.14 8.14 0 0 0 5.28 1.95 8.14 8.14 0 0 0-2-5.28z"/><path fill="#904f12" d="m3 52 6.88-4.62a5 5 0 0 1 5.58 0l4.08 2.74a5 5 0 0 0 5.58 0l4.09-2.74a5 5 0 0 1 5.58 0l4.09 2.74a5 5 0 0 0 5.58 0l4.08-2.74a5 5 0 0 1 5.58 0L61 52v9H3Z"/><path fill="#ffc02a" d="M14 3A11 11 0 0 1 3 14V3Z"/><g fill="#1e120b"><circle cx="11" cy="54" r="1"/><circle cx="19" cy="57" r="1"/><circle cx="31" cy="53" r="1"/><circle cx="40" cy="57" r="1"/><circle cx="51" cy="53" r="1"/><circle cx="55" cy="57" r="1"/><path d="M58 11V8h2a2 2 0 0 0 2-2V4a2 2 0 0 0-2-2H48a2 2 0 0 0-2 2v2a2 2 0 0 0 2 2h2v3a1 1 0 0 0 1 1v20h-1.78v-.91a1 1 0 0 0-1-1c-.2 0-4.56 0-7.31 2.72A8.28 8.28 0 0 0 40 34v-3.25a9.15 9.15 0 0 0 5.85-2.3c2.35-2.35 2.32-6.06 2.32-6.21a1 1 0 0 0-1-1c-.17 0-3.86 0-6.21 2.32a6.37 6.37 0 0 0-1 1.25v-1.93a7.44 7.44 0 0 0 2-4.63 7.8 7.8 0 0 0-2.26-5 1 1 0 0 0-1.4 0 7.8 7.8 0 0 0-2.26 5 7.44 7.44 0 0 0 2 4.63v1.94a6.37 6.37 0 0 0-1-1.25c-2.35-2.35-6-2.31-6.21-2.32a1 1 0 0 0-1 1c0 .15 0 3.86 2.32 6.21A9.15 9.15 0 0 0 38 30.75V34a8.28 8.28 0 0 0-1-1.19c-2.75-2.75-7.11-2.72-7.31-2.72a1 1 0 0 0-1 1c0 .19 0 4.55 2.72 7.31A10.64 10.64 0 0 0 38 41.09v7.24l-2.65-1.78a6 6 0 0 0-6.7 0l-4.09 2.74a4 4 0 0 1-4.46 0l-1.67-1.12v-3.73a8.67 8.67 0 0 0 5.19-2.2 9.14 9.14 0 0 0 2.24-6 1 1 0 0 0-1-1 9.13 9.13 0 0 0-6 2.24c-.16.16-.3.33-.44.49v-1.82a7.48 7.48 0 0 0 4.63-1.89A7.84 7.84 0 0 0 25 29.13a1 1 0 0 0-1-1 7.77 7.77 0 0 0-5.12 1.91 5.18 5.18 0 0 0-.44.51v-.84A6.17 6.17 0 0 0 20 25.94a6.43 6.43 0 0 0-1.88-4.13 1 1 0 0 0-1.39 0 6.49 6.49 0 0 0-1.87 4.13 6.17 6.17 0 0 0 1.57 3.79v.84c-.14-.17-.28-.35-.44-.51a7.85 7.85 0 0 0-5.13-1.91 1 1 0 0 0-1 1 7.8 7.8 0 0 0 1.91 5.13 7.53 7.53 0 0 0 4.64 1.89V38c-.14-.16-.28-.33-.44-.49-2.27-2.27-5.85-2.23-6-2.24a1 1 0 0 0-1 1 9.14 9.14 0 0 0 2.24 6 8.67 8.67 0 0 0 5.19 2.2v2.38l-.4-.3a6 6 0 0 0-6.69 0l-6.87 4.62A1 1 0 0 0 2 52v9a1 1 0 0 0 1 1h58a1 1 0 0 0 1-1v-9a1 1 0 0 0-.44-.83l-3.35-2.25A9.57 9.57 0 0 0 62 41.05V34a2 2 0 0 0-2-2h-3V12a1 1 0 0 0 1-1zM42.38 25a6.7 6.7 0 0 1 3.7-1.64A6.71 6.71 0 0 1 44.44 27a6.63 6.63 0 0 1-3.69 1.64A6.62 6.62 0 0 1 42.38 25zm-8.82 2a6.62 6.62 0 0 1-1.63-3.68A6.69 6.69 0 0 1 35.62 25a6.62 6.62 0 0 1 1.63 3.69A6.6 6.6 0 0 1 33.56 27zm-.69 10a8.46 8.46 0 0 1-2.06-4.81 8.4 8.4 0 0 1 4.81 2.06 8.37 8.37 0 0 1 2.05 4.81 8.32 8.32 0 0 1-4.8-2.06zm-12.59 1.91a6.32 6.32 0 0 1 3.48-1.56 6.32 6.32 0 0 1-1.56 3.48 6.33 6.33 0 0 1-3.48 1.56 6.33 6.33 0 0 1 1.56-3.48zm0-7.43a5 5 0 0 1 2.59-1.22 5 5 0 0 1-1.22 2.58 4.91 4.91 0 0 1-2.58 1.22 5 5 0 0 1 1.21-2.58zm-7.07 1.36A4.91 4.91 0 0 1 12 30.26a5 5 0 0 1 2.58 1.22 4.91 4.91 0 0 1 1.22 2.58 5 5 0 0 1-2.59-1.22zm-.56 8a6.39 6.39 0 0 1-1.56-3.48 6.31 6.31 0 0 1 3.49 1.56 6.31 6.31 0 0 1 1.55 3.48 6.39 6.39 0 0 1-3.48-1.57zm29.73-6.59a8.46 8.46 0 0 1 4.81-2.06A8.35 8.35 0 0 1 45.13 37a8.34 8.34 0 0 1-4.8 2 8.32 8.32 0 0 1 2.05-4.76zM40 41.09a11.06 11.06 0 0 0 6-2.2v2.16a9.75 9.75 0 0 0 1.71 5.68l-3.81 2.56a4 4 0 0 1-3.9.32zm-1-25.51a4.89 4.89 0 0 1 1 2.67 5 5 0 0 1-1 2.67 5 5 0 0 1-1-2.67 4.89 4.89 0 0 1 1-2.67zm-21.57 8.57a3.61 3.61 0 0 1 .57 1.79 3.61 3.61 0 0 1-.57 1.78 3.51 3.51 0 0 1-.57-1.78 3.52 3.52 0 0 1 .57-1.79zM60 52.53V60H4v-7.47l6.44-4.32a4 4 0 0 1 4.46 0L19 51a6 6 0 0 0 6.69 0l4.09-2.74a4 4 0 0 1 4.46 0L38.32 51A6 6 0 0 0 45 51l4.09-2.74a4 4 0 0 1 4.47 0zM60 34v7a7.73 7.73 0 0 1-3.56 6.68l-1.76-1.18a6 6 0 0 0-5.17-.74A7.73 7.73 0 0 1 48 41.05v-4.68a11.3 11.3 0 0 0 .88-2.37H51v5a3 3 0 0 0 6 0v-5zm-7-7V12h2v15zm2 2v10a1 1 0 0 1-2 0V29zm-3-19V8h4v2zm-4-4V4h12v2zM2 24a1 1 0 0 0 2 0v-6a1 1 0 0 0-2 0zM24 4a1 1 0 0 0 0-2h-6a1 1 0 0 0 0 2zm-10.83 9.17a1 1 0 0 0 0 1.42l4.24 4.24a1 1 0 0 0 1.42-1.42l-4.24-4.24a1 1 0 0 0-1.42 0z"/><circle cx="11" cy="54" r="1"/><circle cx="19" cy="57" r="1"/><circle cx="31" cy="53" r="1"/><circle cx="40" cy="57" r="1"/><circle cx="51" cy="53" r="1"/><circle cx="55" cy="57" r="1"/><path d="M14 2H3a1 1 0 0 0-1 1v11a1 1 0 0 0 1 1A12 12 0 0 0 15 3a1 1 0 0 0-1-1ZM4 13V4h9a10 10 0 0 1-9 9Z"/></g></g></svg>