<svg xmlns="http://www.w3.org/2000/svg" viewBox="0 0 64 64"><path fill="#d7e5eb" fill-rule="evenodd" d="M42.7,5c-.69,0-1.35,.53-1.55,1.29l-5.34,19.92-1.75,5.3c1.96,2.5,6.38-.1,6.38-.1,2.97-1.99,5.52-5.73,6.75-10.3,1.84-6.88,.14-13.48-3.81-15.91-.22-.14-.46-.2-.69-.21Z"/><path fill="#e2eef2" fill-rule="evenodd" d="M35.23,33.14l5.3,9.18,4.67-2.69-6.05-10.48c-.26-.45-.73-.72-1.25-.72h-1.03l-1.64,4.71Z"/><path fill="#8598ab" fill-rule="evenodd" d="M46.13,39.35c-.32,0-.64,.1-.94,.27l-4.67,2.69c-.95,.55-1.28,1.76-.73,2.72l1.13,1.96,4.55-.81,3.56-3.87-1.13-1.97c-.38-.65-1.07-1.01-1.77-.99Z"/><polygon fill="#d7e5eb" fill-rule="evenodd" points="28.77 33.14 23.48 42.31 18.81 39.62 23.55 31.41 24.01 28.82 31.46 31 28.77 33.14"/><path fill="#f0f4f6" fill-rule="evenodd" d="M21.3,5c-.23,0-.46,.07-.69,.21-3.95,2.43-5.65,9.03-3.81,15.91,1.85,6.86,6.68,11.86,11.46,11.87h.36l-.43-6.79L22.85,6.29c-.2-.76-.86-1.3-1.55-1.29Z"/><path fill="#8598ab" fill-rule="evenodd" d="M17.87,39.35c-.7-.02-1.39,.34-1.77,.99l-1.13,1.96,3.12,4.2,4.99,.48,1.13-1.96c.55-.95,.23-2.17-.73-2.72l-4.67-2.69c-.3-.17-.62-.26-.94-.27Z"/><circle cx="32" cy="29.36" r="4.97" fill="#8598ab" transform="rotate(-80.78 31.998 29.36)"/><path fill="#62d9fa" fill-rule="evenodd" d="M49.04 42.31l-8.11 4.68 6.36 11.01c.55.95 1.76 1.28 2.72.73l4.67-2.69c.96-.55 1.28-1.76.73-2.71l-6.36-11.01zM23.07 46.99l-8.11-4.68-6.36 11.02c-.55.95-.23 2.16.73 2.71l4.67 2.69c.95.55 2.17.23 2.72-.73l6.36-11.02z"/><path fill="#758797" fill-rule="evenodd" d="M32,27.35c-.55,0-1,.45-1,1v2.02c0,.55,.45,1,1,1s1-.45,1-1v-2.02c0-.55-.45-1-1-1Z"/><path fill="#fafbfb" fill-rule="evenodd" d="M20.23,10.49c-.1-.03-.21-.05-.31-.05-.43,0-.82,.28-.95,.69,0,0-1.26,3.72,0,7.52,.13,.41,.52,.69,.95,.69,.11,0,.21-.02,.31-.05,.41-.13,.69-.52,.69-.95,0-.11-.02-.21-.05-.31-1-3.04,0-6.27,0-6.27,.17-.52-.12-1.09-.64-1.26Z"/></svg>