<svg xmlns="http://www.w3.org/2000/svg" viewBox="0 0 64 64" id="cleaning-brush"><g data-name="cleaning brush"><rect width="58" height="8" x="3" y="53" fill="#57565c"></rect><rect width="48" height="21" x="8" y="28" fill="#e0e0e2"></rect><circle cx="48" cy="15" r="2" fill="#bdfdff"></circle><rect width="17" height="6" x="22" y="3" fill="#e0e0e2"></rect><rect width="8" height="4" x="11" y="12" fill="#e0e0e2"></rect><path fill="#957856" d="M45.12 3.88A3 3 0 0 1 43 9H39V3h4A2.993 2.993 0 0 1 45.12 3.88zM22 3V9H19v3H11V5a2.006 2.006 0 0 1 2-2z"></path><rect width="8" height="4" x="11" y="16" fill="#957856"></rect><path fill="#2488ff" d="M59,51a5.8,5.8,0,0,1-.35,2,5.987,5.987,0,0,1-10.83,1.01A3,3,0,0,1,42,53H20v3a2.006,2.006,0,0,1-2,2,2.015,2.015,0,0,1-2-2V54a2.015,2.015,0,0,1-2,2,2.006,2.006,0,0,1-2-2V53H7a5.006,5.006,0,0,1,1-8.59A5.106,5.106,0,0,1,10,44a4.932,4.932,0,0,1,2.03.44,7.99,7.99,0,0,1,13.12-5.56,8.043,8.043,0,0,1,3.77-3.26A7.879,7.879,0,0,1,32,35a7.983,7.983,0,0,1,6.51,3.36,8.926,8.926,0,0,1,8.32,1.79A5.069,5.069,0,0,1,48,40a5,5,0,0,1,5,5,5.857,5.857,0,0,1,3,.81A5.985,5.985,0,0,1,59,51Z"></path><path fill="#ff9811" d="M59,22v4a2.006,2.006,0,0,1-2,2H6a1,1,0,0,1-1-1V21a1,1,0,0,1,1-1H57A2.006,2.006,0,0,1,59,22Z"></path><circle cx="20" cy="47" r="2" fill="#bdfdff"></circle><path d="M61,52H59.91A6.638,6.638,0,0,0,60,51a6.978,6.978,0,0,0-3-5.73V29a3.009,3.009,0,0,0,3-3V22a3.009,3.009,0,0,0-3-3H20V10H43a4,4,0,0,0,0-8H13a3.009,3.009,0,0,0-3,3V19H6a2.006,2.006,0,0,0-2,2v6a2.006,2.006,0,0,0,2,2H7V43.81A5.96,5.96,0,0,0,4.82,52H3a1,1,0,0,0-1,1v8a1,1,0,0,0,1,1H61a1,1,0,0,0,1-1V53A1,1,0,0,0,61,52ZM40,4h3a2,2,0,0,1,0,4H40ZM23,4H38V8H23ZM12,5a1,1,0,0,1,1-1h8V8H19a1,1,0,0,0-1,1v2H12Zm0,8h6v2H12Zm0,4h6v2H12ZM6,27V21H57a1,1,0,0,1,1,1v4a1,1,0,0,1-1,1Zm6.99,2H15l.01,5h2L17,29h1.99L19,33h2l-.01-4H23l.01,5h2L25,29h1.99L27,33h2l-.01-4H31l.01,3h2L33,29h2l.01,5h2L37,29h1.99L39,33h2l-.01-4H43l.01,5h2L45,29h1.99L47,33h2l-.01-4H51l.01,5h2L53,29h2V44.3a6.611,6.611,0,0,0-1.07-.24A6.021,6.021,0,0,0,48,39a5.9,5.9,0,0,0-.91.08,9.973,9.973,0,0,0-8.19-1.85A9.053,9.053,0,0,0,32,34a8.94,8.94,0,0,0-7.09,3.46,8.986,8.986,0,0,0-13.7,5.66A6.13,6.13,0,0,0,10,43a6.638,6.638,0,0,0-1,.09V29h1.99L11,33h2ZM9.077,45.106a3.966,3.966,0,0,1,2.543.244.969.969,0,0,0,.92-.05,1.026,1.026,0,0,0,.49-.79,6.987,6.987,0,0,1,11.48-4.86,1,1,0,0,0,1.5-.25A6.939,6.939,0,0,1,32,36a7.037,7.037,0,0,1,5.7,2.94.982.982,0,0,0,1.09.38,7.978,7.978,0,0,1,7.39,1.59.97.97,0,0,0,.88.21A4.243,4.243,0,0,1,48,41a4,4,0,0,1,4,3.988A1.014,1.014,0,0,0,53,46a5.023,5.023,0,1,1-4.319,7.5,1.026,1.026,0,0,0-.952-.487,1.008,1.008,0,0,0-.85.67,2,2,0,0,1-2.7,1.149A2.128,2.128,0,0,1,43,52.941,1,1,0,0,0,42,52H20a1,1,0,0,0-1,1v3a1,1,0,0,1-1,1,.949.949,0,0,1-.71-.31A.928.928,0,0,1,17,56V53a1,1,0,0,0-1-1h0a1,1,0,0,0-1,1v1a.949.949,0,0,1-.31.71A.928.928,0,0,1,14,55a1,1,0,0,1-1-1V53a1,1,0,0,0-1-1H7.39a3.922,3.922,0,0,1-.267-5.74A3.813,3.813,0,0,1,9.077,45.106ZM60,60H4V54h7a2.994,2.994,0,0,0,4.12,2.78,2.8,2.8,0,0,0,.75,1.33A2.971,2.971,0,0,0,18,59a3.009,3.009,0,0,0,3-3V54H41.13a3.993,3.993,0,0,0,6.75,1.77A6.974,6.974,0,0,0,59.3,54H60Z"></path><path d="M45,15a3,3,0,1,0,3-3A3,3,0,0,0,45,15Zm3-1a1,1,0,1,1-1,1A1,1,0,0,1,48,14Z"></path><rect width="2" height="2" x="53" y="3"></rect><rect width="2" height="2" x="55" y="5"></rect><rect width="2" height="2" x="53" y="7"></rect><rect width="2" height="2" x="51" y="5"></rect><path d="M20,50a3,3,0,1,0-3-3A3,3,0,0,0,20,50Zm0-4a1,1,0,1,1-1,1A1,1,0,0,1,20,46Z"></path><rect width="2" height="2" x="30" y="38"></rect><rect width="2" height="2" x="32" y="40"></rect><rect width="2" height="2" x="30" y="42"></rect><rect width="2" height="2" x="28" y="40"></rect><rect width="2" height="2" x="41" y="44"></rect><rect width="2" height="2" x="43" y="46"></rect><rect width="2" height="2" x="41" y="48"></rect><rect width="2" height="2" x="39" y="46"></rect></g></svg>