<svg xmlns="http://www.w3.org/2000/svg" data-name="Layer 2" viewBox="0 0 668.11 1023.16" id="spin-mop"><g data-name="CLEANING TOOLS"><path fill="#ead4b9" d="M562.07,1018.16c-1.44,0-2.59-9.04-4.03-9.12-17.77-1.05-17.69-2.4-35.45-3.45-17.76-1.05-18.09,4.5-35.86,3.45s-17.55-4.75-35.31-5.8c-17.77-1.05-17.4-7.16-35.17-8.21-17.77-1.05-19.01,19.93-36.77,18.88-17.77-1.05-17.15-11.47-34.92-12.52-17.76-1.05-18.37,9.19-36.13,8.14s-16.57-21.31-34.33-22.36c-17.77-1.05-18.46,10.64-36.22,9.59-17.77-1.05-17.81-.35-35.58-1.4-17.77-1.05-18.15,5.49-35.92,4.44-17.77-1.05-16.52-22.15-34.29-23.2-17.77-1.05-18.52,11.67-36.29,10.62-17.77-1.05-18.1,4.56-35.87,3.5-9.32-.55-17.51-9.73-25.16-14.48-7.65-4.75-14.2-11.05-18.82-19.16-4.62-8.12-9.12-16.91-9.31-25.91-.19-9-3.83-21.98,.45-30.28,8.42-16.33,26.9-6.81,35.32-23.14,8.42-16.33,.18-20.59,8.6-36.92,6.33-12.27,14.83-20.68,26.11-27.56,11.29-6.88,22.66-22.94,36.46-22.94,1.44,0,2.25,20.41,3.69,20.49,17.77,1.05,18.51-11.57,36.28-10.52,17.76,1.05,17.64,3.22,35.4,4.27,17.77,1.05,18.44-10.31,36.2-9.26,17.77,1.05,17.19,10.83,34.95,11.88,17.77,1.05,17.67,2.69,35.44,3.74,17.77,1.05,18.06-3.92,35.83-2.87,17.76,1.05,17.94-1.97,35.71-.92,17.76,1.05,17.42,6.92,35.18,7.97,17.77,1.05,17.9-1.18,35.67-.13s16.91,15.62,34.67,16.67c17.77,1.05,18-2.86,35.77-1.8,17.77,1.05,18.07-4.11,35.84-3.06,17.77,1.05,17.53,5.08,35.3,6.13s18.4-9.56,36.17-8.51c9.32,.55,20.2,4.45,27.85,9.2,7.65,4.75,1.48,21.03,6.1,29.15,4.62,8.12,6.74,11.42,6.93,20.43,.19,9.01,9.76,18.35,5.48,26.65-8.42,16.33-15.78,12.54-24.2,28.87-8.42,16.33,7.09,24.33-1.33,40.67-6.33,12.27-23.59,19.64-34.87,26.52-11.28,6.88-25.74,12.28-39.55,12.28Z"></path><path fill="#7bc12b" d="M559.91,977.37l-497.47-29.4c-13-.77-20.91-14.65-14.94-26.23l33.69-65.34c6.61-12.81,20.15-20.53,34.54-19.68l497.47,29.4c13,.77,20.91,14.65,14.94,26.23l-33.69,65.34c-6.61,12.81-20.15,20.53-34.54,19.68Z"></path><polygon fill="#ead4b9" points="441.2 889.02 417.05 935.87 205.4 923.36 229.56 876.51 441.2 889.02"></polygon><polygon fill="#ead4b9" points="428.16 144.98 352.19 743.78 329.3 741.45 405.49 140.91 428.16 144.98"></polygon><rect width="253.68" height="46" x="209.04" y="758.03" fill="#7bc12b" rx="23" ry="23" transform="rotate(-82.77 335.879 781.038)"></rect><rect width="201.32" height="46" x="320.97" y="82.05" fill="#7bc12b" rx="23" ry="23" transform="rotate(-82.77 421.63 105.053)"></rect><path d="M664.46,892.27c-1.47-3.35-2.86-6.51-2.91-9.19-.21-9.88-2.62-14.1-6.99-21.76l-.6-1.04c-1.36-2.39-1.32-6.88-1.28-11.22,.07-7.29,.15-15.56-6.53-19.71-8.96-5.56-20.53-9.37-30.2-9.94-10.25-.6-15.8,2.27-20.68,4.81-4.28,2.22-7.97,4.15-15.48,3.7-8.33-.49-12.33-1.65-16.56-2.88-4.58-1.33-9.31-2.7-18.75-3.25-9.59-.57-14.54,.56-19.32,1.65-4.29,.98-8.35,1.89-16.52,1.42-9.42-.55-14.27,.21-18.95,.96-4.35,.69-8.47,1.34-16.81,.85-7.1-.42-10.25-3.33-14.24-7.02-4.35-4.02-9.77-9.02-20.44-9.65-9.19-.54-13.9-.23-18.45,.07-4.44,.29-8.63,.57-17.21,.06-8.08-.48-11.95-2.01-16.04-3.64-4.43-1.76-9.45-3.76-19.13-4.33-2.12-.13-4.07-.2-5.91-.22l15.27-120.38c1.17-9.2-2.29-17.93-8.56-23.87l57.22-451.08c7.55-4.18,13.08-11.78,14.25-20.98l19.55-154.09c1.94-15.32-8.94-29.36-24.25-31.3-7.42-.94-14.76,1.06-20.67,5.64s-9.69,11.19-10.63,18.61l-19.55,154.09c-.94,7.42,1.06,14.76,5.64,20.67,.9,1.16,1.87,2.23,2.92,3.22l-57.22,451.03c-1.26,.7-2.47,1.49-3.63,2.39-5.91,4.58-9.69,11.19-10.63,18.61l-16.67,131.42c-2.18,.18-4.97,.25-8.67,.03-8.66-.51-12.84-1.15-17.27-1.82-4.45-.68-9.06-1.38-18.16-1.92-7.6-.45-11.08-2.64-15.11-5.18-4.54-2.86-9.68-6.11-19.85-6.71-10.34-.62-15.91,2.51-20.83,5.26-4.44,2.48-7.94,4.44-15.37,4-8.58-.51-12.71-1.26-17.1-2.06-4.48-.82-9.12-1.66-18.3-2.21-10.48-.62-16.12,2.91-21.09,6.01-3.64,2.28-6.65,4.16-11.67,4.51-.25-1.79-.49-4.06-.69-5.81-.28-2.58-.58-5.24-.89-7.27-.38-2.41-1.17-7.42-5.92-7.42-11.08,0-20.25,8.06-28.34,15.17-3.77,3.31-7.32,6.44-10.72,8.51-12.65,7.72-21.54,17.1-27.95,29.54-4.75,9.22-4.81,15.32-4.86,20.71-.04,4.89-.08,9.1-3.75,16.21-3.18,6.16-8.15,7.42-14.44,9.01-6.97,1.76-15.63,3.96-20.88,14.13-3.74,7.27-2.67,16.47-1.72,24.59,.34,2.95,.67,5.74,.72,8.1,.22,10.32,5.26,20,9.96,28.28,4.79,8.41,11.7,15.45,20.53,20.93,2.05,1.27,4.24,2.97,6.56,4.77,6.02,4.68,12.85,9.98,20.94,10.45,9.65,.57,14.86-.74,19.45-1.89,4.27-1.07,8.3-2.09,16.42-1.61,10.49,.61,16.13-2.94,21.11-6.08,4.42-2.79,7.92-4.98,15.18-4.55,6.25,.37,9.17,3.89,13.43,9.6,4.3,5.77,9.65,12.94,20.86,13.6,9.77,.58,15.05-1.02,19.71-2.42,4.41-1.33,8.23-2.48,16.21-2.01,8.98,.53,13.56,.62,17.99,.7,4.33,.08,8.81,.17,17.59,.69,10.38,.61,15.97-2.61,20.91-5.46,4.43-2.55,7.92-4.57,15.31-4.13,6.62,.39,9.67,4.3,13.52,9.26,4.31,5.54,9.68,12.44,20.82,13.1,10.22,.6,15.73-2.16,20.6-4.59,4.29-2.14,8-3.99,15.53-3.55,7.53,.45,10.98,2.75,14.98,5.42,4.55,3.04,9.7,6.48,19.94,7.09,11.21,.67,17.35-5.79,22.29-10.97,4.9-5.14,8.21-8.26,14.48-7.9,8.05,.48,11.72,1.99,15.98,3.74,4.44,1.83,9.47,3.9,19.19,4.47,8.37,.5,12.4,1.58,16.65,2.73,4.56,1.23,9.27,2.5,18.66,3.06,9.65,.57,14.85-.72,19.44-1.86,4.27-1.06,8.31-2.06,16.42-1.59,8.7,.51,12.9,1.08,17.36,1.69,3.95,.54,8.02,1.09,15.26,1.58,.12,.4,.23,.8,.33,1.12,1.09,3.84,2.34,8.19,6.83,8.19,13.22,0,28.58-4.74,42.15-13.01,2.24-1.37,4.76-2.77,7.42-4.26,11.05-6.16,23.58-13.15,29.29-24.23,5.12-9.94,2.85-17.75,1.02-24.03-1.67-5.73-2.99-10.25,.31-16.64,3.72-7.21,6.98-9.81,10.77-12.81,4.09-3.25,8.73-6.94,13.43-16.06,3.62-7.04,.5-14.14-2-19.85Zm-314.04-3.6l82.82,4.89-19.14,37.13-200.73-11.87,19.15-37.13,62.33,3.69c.63,13.32,10.76,24.71,24.44,26.45,1.2,.15,2.39,.23,3.58,.23,6.17,0,12.14-2.03,17.09-5.87,5.62-4.35,9.3-10.54,10.46-17.52Zm-54.74-13.25l-65.82-3.89c-1.96-.11-3.83,.94-4.74,2.7l-24.16,46.85c-.77,1.5-.74,3.3,.1,4.77,.84,1.47,2.36,2.42,4.05,2.52l211.65,12.51c.1,0,.2,0,.3,0,1.86,0,3.58-1.04,4.44-2.71l24.15-46.85c.78-1.5,.74-3.3-.1-4.77-.84-1.47-2.36-2.42-4.05-2.52l-89.79-5.3,2.9-22.87,258.29,15.26c4.48,.26,8.32,2.65,10.53,6.54,2.22,3.89,2.31,8.42,.26,12.4l-33.69,65.33c-5.69,11.05-17.37,17.7-29.8,16.98l-497.46-29.4c-4.48-.27-8.32-2.65-10.54-6.55-2.22-3.89-2.31-8.42-.26-12.4l33.68-65.33c5.7-11.05,17.38-17.7,29.8-16.98l183.15,10.82-2.9,22.87ZM394,179.83l19.55-154.09c.61-4.77,3.03-9.02,6.83-11.96,3.19-2.47,7.02-3.77,10.99-3.77,.76,0,1.53,.05,2.3,.15,9.85,1.25,16.84,10.28,15.59,20.12l-19.55,154.09c-1.25,9.85-10.28,16.84-20.12,15.59-4.77-.61-9.02-3.03-11.96-6.83-2.94-3.8-4.23-8.52-3.63-13.29Zm7.98,28.47c2.03,.76,4.15,1.29,6.35,1.57,1.19,.15,2.37,.22,3.54,.22,1.01,0,2.01-.06,3-.17l-56.06,441.9c-2.01-.76-4.13-1.3-6.36-1.58-2.2-.28-4.39-.29-6.54-.06l56.06-441.88Zm-70.9,467.45c.61-4.77,3.03-9.02,6.83-11.96,3.19-2.47,7.02-3.77,10.99-3.77,.76,0,1.53,.05,2.3,.15,9.85,1.25,16.84,10.28,15.59,20.12l-26.14,206.03c-.61,4.77-3.03,9.02-6.83,11.96-3.8,2.94-8.51,4.24-13.29,3.63-9.85-1.25-16.84-10.28-15.59-20.12l26.14-206.03Zm326.48,231.79c-3.72,7.21-6.98,9.81-10.77,12.81-4.09,3.25-8.73,6.94-13.43,16.06-5.12,9.94-2.85,17.75-1.02,24.02,1.67,5.73,2.99,10.25-.31,16.65-4.33,8.4-15.45,14.6-25.27,20.08-2.75,1.53-5.35,2.98-7.76,4.45-11,6.7-23.18,10.79-33.92,11.45-.09-.3-.17-.59-.24-.83-1.11-3.89-2.26-7.92-6.52-8.18-8.69-.51-12.89-1.08-17.34-1.69-4.44-.6-9.03-1.23-18.11-1.76-9.64-.57-14.84,.72-19.43,1.86-4.27,1.06-8.32,2.07-16.43,1.59-8.36-.5-12.38-1.58-16.64-2.73-4.56-1.23-9.27-2.5-18.67-3.06-8.05-.48-11.72-1.99-15.98-3.74-4.44-1.83-9.47-3.9-19.19-4.47-11.19-.67-17.36,5.79-22.3,10.98-4.9,5.13-8.2,8.26-14.47,7.89-7.53-.45-10.98-2.75-14.98-5.42-4.55-3.04-9.7-6.48-19.94-7.09-10.22-.61-15.73,2.16-20.6,4.59-4.29,2.14-7.98,3.99-15.53,3.55-6.62-.39-9.67-4.3-13.52-9.26-4.31-5.54-9.68-12.44-20.82-13.1-10.37-.62-15.96,2.61-20.9,5.45-4.43,2.55-7.93,4.57-15.32,4.14-8.99-.53-13.56-.62-17.99-.7-4.33-.08-8.8-.17-17.59-.69-9.77-.57-15.04,1.01-19.69,2.42-4.42,1.33-8.23,2.48-16.23,2.01-6.25-.37-9.17-3.89-13.43-9.6-4.3-5.76-9.65-12.94-20.86-13.6-10.49-.61-16.13,2.94-21.11,6.08-4.41,2.78-7.9,4.98-15.18,4.55-9.65-.57-14.86,.74-19.45,1.89-4.27,1.07-8.31,2.09-16.42,1.61-5-.29-10.29-4.4-15.4-8.37-2.42-1.88-4.92-3.82-7.42-5.37-7.4-4.59-13.16-10.44-17.11-17.38-4.1-7.21-8.49-15.56-8.66-23.54-.06-2.83-.41-5.85-.79-9.05-.78-6.7-1.67-14.29,.68-18.85,3.18-6.16,8.15-7.42,14.44-9.01,6.97-1.76,15.63-3.96,20.88-14.12,4.76-9.22,4.81-15.33,4.86-20.71,.04-4.88,.08-9.1,3.74-16.21,5.61-10.88,13.1-18.77,24.27-25.58,4.14-2.52,8.2-6.09,12.12-9.53,5.89-5.17,11.94-10.5,18.01-12.16,.22,1.69,.44,3.69,.61,5.26,.28,2.57,.57,5.22,.89,7.25,.39,2.5,1.12,7.17,5.63,7.45,10.49,.62,16.11-2.91,21.08-6.02,4.42-2.76,7.9-4.95,15.2-4.51,8.58,.51,12.71,1.26,17.1,2.06,4.48,.82,9.12,1.66,18.3,2.21,10.33,.61,15.92-2.51,20.84-5.26,4.44-2.48,7.94-4.45,15.36-4,7.6,.45,11.08,2.64,15.11,5.18,4.54,2.86,9.68,6.11,19.85,6.71,8.65,.51,12.82,1.15,17.25,1.82,4.46,.68,9.06,1.38,18.18,1.92,2.91,.17,5.52,.2,7.99,.09l-3.37,26.58-183.82-10.86c-16.37-.98-31.77,7.82-39.28,22.38l-33.68,65.33c-3.58,6.95-3.41,15.15,.46,21.93,3.87,6.79,10.83,11.12,18.63,11.58l497.46,29.4c.82,.05,1.63,.07,2.45,.07,15.44,0,29.71-8.62,36.83-22.45l33.69-65.33c3.58-6.95,3.41-15.15-.46-21.94-3.87-6.79-10.83-11.11-18.63-11.58l-257.62-15.22,4.31-34c2.02,0,4.18,.07,6.59,.21,8.08,.48,11.94,2.01,16.03,3.64,4.43,1.76,9.46,3.76,19.15,4.33,9.2,.54,13.91,.23,18.46-.07,4.44-.29,8.63-.57,17.2-.06,7.1,.42,10.25,3.33,14.24,7.02,4.35,4.02,9.77,9.02,20.44,9.65,9.43,.56,14.28-.21,18.96-.96,4.35-.69,8.46-1.35,16.79-.85,9.6,.57,14.54-.56,19.33-1.65,4.29-.98,8.35-1.89,16.51-1.41,8.33,.49,12.33,1.65,16.56,2.88,4.58,1.33,9.31,2.7,18.75,3.25,10.25,.61,15.8-2.27,20.68-4.81,4.28-2.22,7.97-4.14,15.48-3.7,7.99,.47,18,3.79,25.52,8.46,1.9,1.18,1.85,6.69,1.81,11.11-.05,5.67-.11,11.53,2.59,16.27l.6,1.05c4.13,7.23,5.52,9.67,5.68,17,.09,4.67,2.04,9.1,3.75,13.01,2.31,5.26,3.62,8.64,2.27,11.25Z"></path></g></svg>