<svg xmlns="http://www.w3.org/2000/svg" enable-background="new 0 0 50 50" viewBox="0 0 50 50" id="modern-house"><path fill="#EEEDED" d="M4.2896 9.217c0 .9714.8971 1.751 1.9985 1.751h7.7652c1.0952 0 1.9924-.7796 1.9924-1.751 0-.9281-.8167-1.6706-1.8377-1.7449.0433-.1485.0742-.297.0742-.4517 0-.8724-.8044-1.5778-1.7943-1.5778-.2722 0-.5198.0495-.7487.1361-.2351-.5383-.761-.9405-1.4169-1.0642-.1361-.0371-.2846-.0495-.4331-.0495-.8415 0-1.5592.4579-1.8562 1.1014C7.9031 5.5356 7.767 5.5232 7.6185 5.5232c-1.0395 0-1.8872.7487-1.8872 1.6582 0 .1114.0186.2351.0495.3465C4.9146 7.7197 4.2896 8.4065 4.2896 9.217zM39.1437 20.257c0 .8038.7424 1.449 1.6537 1.449h6.4255c.9062 0 1.6486-.6451 1.6486-1.449 0-.768-.6758-1.3824-1.5206-1.4438.3401-1.1658-.9253-1.9894-2.0429-1.5667-.5256-1.2033-2.4979-1.243-3.0668-.0102-1.0326-.2458-2.1374.6375-1.8637 1.623C39.6608 19.018 39.1437 19.5863 39.1437 20.257z"></path><path fill="#9CCC65" d="M48.9476,43.3849v2.15h-47.93v-2.15h4.56c0.5302,0.4638,1.5022,0.5135,2.11,0.03
			c0.3512,0.1506,0.696,0.0672,0.9,0.04c0.4482,0.4173,1.2304,0.3335,1.58-0.07h29.59c0.6313,0.5198,1.5671,0.4619,2.11,0.03
			c0.3876,0.1661,0.7814,0.0548,0.9,0.04c0.4482,0.4173,1.2304,0.3335,1.58-0.07H48.9476z"></path><path fill="#9CCC65" d="M10.1677 43.3849c-.3496.4034-1.1318.4873-1.58.07-.1299.0173-.5289.1191-.9-.04-.6078.4834-1.5799.4338-2.11-.03H10.1677zM44.3477 43.3849c-.3496.4034-1.1318.4873-1.58.07-.1256.0157-.5233.1215-.9-.04-.5433.4322-1.4792.4894-2.11-.03H44.3477z"></path><path fill="#676767" d="M45.5149,25.5354h-41.06c-0.34,0-0.53-0.39-0.33-0.66l4.28-5.7c0.08-0.1,0.2-0.16,0.33-0.16
			c34.467,0.0631,32.6058-0.146,32.82,0.16l4.29,5.7C46.0449,25.1454,45.8549,25.5354,45.5149,25.5354z"></path><rect width="38.04" height="17.85" x="5.968" y="25.535" fill="#FCD183"></rect><rect width="4.4" height="3.87" x="11.048" y="18.003" fill="#535352"></rect><rect width="5.89" height="2.116" x="10.3" y="15.889" fill="#D25C59"></rect><rect width="38.04" height=".33" x="5.965" y="25.535" fill="#EBB760"></rect><polygon fill="#EEEDED" points="31.298 25.535 31.298 43.385 18.668 43.385 18.668 25.535 23.548 19.015 24.988 17.085 26.428 19.015"></polygon><polygon fill="#CDCCCC" points="31.298 25.533 31.298 26.603 24.988 18.113 18.668 26.603 18.668 25.533 24.988 17.083"></polygon><path fill="#EBB760" d="M42.2304,33.4963v0.44h-8.59v-0.44h0.42v-5.6899c2.65-0.4301,5.2401-0.45,7.75,0v5.6899H42.2304z"></path><path fill="#FFF" d="M41.526,33.2161h-7.7522l0-5.6944c2.6527-0.4231,5.2407-0.447,7.7522,0V33.2161z"></path><rect width="8.582" height=".441" x="33.358" y="33.218" fill="#676767"></rect><rect width=".871" height="1.348" x="34.466" y="28.156" fill="#72B0E0"></rect><rect width=".871" height="1.348" x="34.466" y="29.697" fill="#72B0E0"></rect><rect width=".871" height="1.348" x="34.466" y="31.239" fill="#72B0E0"></rect><rect width=".871" height="1.348" x="35.457" y="28.156" fill="#72B0E0"></rect><rect width=".871" height="1.348" x="35.457" y="29.697" fill="#72B0E0"></rect><rect width=".871" height="1.348" x="35.457" y="31.239" fill="#72B0E0"></rect><rect width=".871" height="1.348" x="36.449" y="28.156" fill="#72B0E0"></rect><rect width=".871" height="1.348" x="36.449" y="29.697" fill="#72B0E0"></rect><rect width=".871" height="1.348" x="36.449" y="31.239" fill="#72B0E0"></rect><rect width=".871" height="1.348" x="37.98" y="28.156" fill="#72B0E0"></rect><rect width=".871" height="1.348" x="37.98" y="29.697" fill="#72B0E0"></rect><rect width=".871" height="1.348" x="37.98" y="31.239" fill="#72B0E0"></rect><rect width=".871" height="1.348" x="38.971" y="28.156" fill="#72B0E0"></rect><rect width=".871" height="1.348" x="38.971" y="29.697" fill="#72B0E0"></rect><rect width=".871" height="1.348" x="38.971" y="31.239" fill="#72B0E0"></rect><rect width=".871" height="1.348" x="39.963" y="28.156" fill="#72B0E0"></rect><rect width=".871" height="1.348" x="39.963" y="29.697" fill="#72B0E0"></rect><rect width=".871" height="1.348" x="39.963" y="31.239" fill="#72B0E0"></rect><path fill="#EBB760" d="M42.2304,41.8472v0.44h-8.59v-0.44h0.42v-5.6899c2.65-0.4301,5.2401-0.45,7.75,0v5.6899H42.2304z"></path><path fill="#FFF" d="M41.526,41.5671h-7.7522l0-5.6944c2.6527-0.4231,5.2407-0.447,7.7522,0V41.5671z"></path><rect width="8.582" height=".441" x="33.358" y="41.569" fill="#676767"></rect><rect width=".871" height="1.348" x="34.466" y="36.507" fill="#72B0E0"></rect><rect width=".871" height="1.348" x="34.466" y="38.048" fill="#72B0E0"></rect><rect width=".871" height="1.348" x="34.466" y="39.59" fill="#72B0E0"></rect><rect width=".871" height="1.348" x="35.457" y="36.507" fill="#72B0E0"></rect><rect width=".871" height="1.348" x="35.457" y="38.048" fill="#72B0E0"></rect><rect width=".871" height="1.348" x="35.457" y="39.59" fill="#72B0E0"></rect><rect width=".871" height="1.348" x="36.449" y="36.507" fill="#72B0E0"></rect><rect width=".871" height="1.348" x="36.449" y="38.048" fill="#72B0E0"></rect><rect width=".871" height="1.348" x="36.449" y="39.59" fill="#72B0E0"></rect><rect width=".871" height="1.348" x="37.98" y="36.507" fill="#72B0E0"></rect><rect width=".871" height="1.348" x="37.98" y="38.048" fill="#72B0E0"></rect><rect width=".871" height="1.348" x="37.98" y="39.59" fill="#72B0E0"></rect><rect width=".871" height="1.348" x="38.971" y="36.507" fill="#72B0E0"></rect><rect width=".871" height="1.348" x="38.971" y="38.048" fill="#72B0E0"></rect><rect width=".871" height="1.348" x="38.971" y="39.59" fill="#72B0E0"></rect><rect width=".871" height="1.348" x="39.963" y="36.507" fill="#72B0E0"></rect><rect width=".871" height="1.348" x="39.963" y="38.048" fill="#72B0E0"></rect><rect width=".871" height="1.348" x="39.963" y="39.59" fill="#72B0E0"></rect><path fill="#EBB760" d="M16.6169,33.4963v0.44h-8.59v-0.44h0.42v-5.6899c2.65-0.4301,5.2401-0.45,7.75,0v5.6899H16.6169z"></path><path fill="#FFF" d="M15.9125,33.2161H8.1603l0-5.6944c2.6528-0.4231,5.2407-0.447,7.7522,0V33.2161z"></path><rect width="8.582" height=".441" x="7.745" y="33.218" fill="#676767"></rect><rect width=".871" height="1.348" x="8.852" y="28.156" fill="#72B0E0"></rect><rect width=".871" height="1.348" x="8.852" y="29.697" fill="#72B0E0"></rect><rect width=".871" height="1.348" x="8.852" y="31.239" fill="#72B0E0"></rect><rect width=".871" height="1.348" x="9.844" y="28.156" fill="#72B0E0"></rect><rect width=".871" height="1.348" x="9.844" y="29.697" fill="#72B0E0"></rect><rect width=".871" height="1.348" x="9.844" y="31.239" fill="#72B0E0"></rect><rect width=".871" height="1.348" x="10.835" y="28.156" fill="#72B0E0"></rect><rect width=".871" height="1.348" x="10.835" y="29.697" fill="#72B0E0"></rect><rect width=".871" height="1.348" x="10.835" y="31.239" fill="#72B0E0"></rect><rect width=".871" height="1.348" x="12.366" y="28.156" fill="#72B0E0"></rect><rect width=".871" height="1.348" x="12.366" y="29.697" fill="#72B0E0"></rect><rect width=".871" height="1.348" x="12.366" y="31.239" fill="#72B0E0"></rect><rect width=".871" height="1.348" x="13.358" y="28.156" fill="#72B0E0"></rect><rect width=".871" height="1.348" x="13.358" y="29.697" fill="#72B0E0"></rect><rect width=".871" height="1.348" x="13.358" y="31.239" fill="#72B0E0"></rect><rect width=".871" height="1.348" x="14.349" y="28.156" fill="#72B0E0"></rect><rect width=".871" height="1.348" x="14.349" y="29.697" fill="#72B0E0"></rect><rect width=".871" height="1.348" x="14.349" y="31.239" fill="#72B0E0"></rect><path fill="#EBB760" d="M16.6169,41.8472v0.44h-8.59v-0.44h0.42v-5.6899c2.65-0.4301,5.2401-0.45,7.75,0v5.6899H16.6169z"></path><path fill="#FFF" d="M15.9125,41.5671H8.1603l0-5.6944c2.6528-0.4231,5.2407-0.447,7.7522,0V41.5671z"></path><rect width="8.582" height=".441" x="7.745" y="41.569" fill="#676767"></rect><rect width=".871" height="1.348" x="8.852" y="36.507" fill="#72B0E0"></rect><rect width=".871" height="1.348" x="8.852" y="38.048" fill="#72B0E0"></rect><rect width=".871" height="1.348" x="8.852" y="39.59" fill="#72B0E0"></rect><rect width=".871" height="1.348" x="9.844" y="36.507" fill="#72B0E0"></rect><rect width=".871" height="1.348" x="9.844" y="38.048" fill="#72B0E0"></rect><rect width=".871" height="1.348" x="9.844" y="39.59" fill="#72B0E0"></rect><rect width=".871" height="1.348" x="10.835" y="36.507" fill="#72B0E0"></rect><rect width=".871" height="1.348" x="10.835" y="38.048" fill="#72B0E0"></rect><rect width=".871" height="1.348" x="10.835" y="39.59" fill="#72B0E0"></rect><rect width=".871" height="1.348" x="12.366" y="36.507" fill="#72B0E0"></rect><rect width=".871" height="1.348" x="12.366" y="38.048" fill="#72B0E0"></rect><rect width=".871" height="1.348" x="12.366" y="39.59" fill="#72B0E0"></rect><rect width=".871" height="1.348" x="13.358" y="36.507" fill="#72B0E0"></rect><rect width=".871" height="1.348" x="13.358" y="38.048" fill="#72B0E0"></rect><rect width=".871" height="1.348" x="13.358" y="39.59" fill="#72B0E0"></rect><rect width=".871" height="1.348" x="14.349" y="36.507" fill="#72B0E0"></rect><rect width=".871" height="1.348" x="14.349" y="38.048" fill="#72B0E0"></rect><rect width=".871" height="1.348" x="14.349" y="39.59" fill="#72B0E0"></rect><g><path fill="#CDCCCC" d="M29.4172,30.2343v0.44h-8.59v-0.44h0.42v-5.6899c2.65-0.4301,5.2401-0.45,7.75,0v5.6899H29.4172z"></path><path fill="#FFF" d="M28.7128,29.9541h-7.7522l0-5.6944c2.6528-0.4231,5.2407-0.447,7.7522,0V29.9541z"></path><rect width="8.582" height=".441" x="20.545" y="29.956" fill="#676767"></rect><rect width=".871" height="1.348" x="21.653" y="24.894" fill="#72B0E0"></rect><rect width=".871" height="1.348" x="21.653" y="26.435" fill="#72B0E0"></rect><rect width=".871" height="1.348" x="21.653" y="27.977" fill="#72B0E0"></rect><rect width=".871" height="1.348" x="22.644" y="24.894" fill="#72B0E0"></rect><rect width=".871" height="1.348" x="22.644" y="26.435" fill="#72B0E0"></rect><rect width=".871" height="1.348" x="22.644" y="27.977" fill="#72B0E0"></rect><rect width=".871" height="1.348" x="23.635" y="24.894" fill="#72B0E0"></rect><rect width=".871" height="1.348" x="23.635" y="26.435" fill="#72B0E0"></rect><rect width=".871" height="1.348" x="23.635" y="27.977" fill="#72B0E0"></rect><rect width=".871" height="1.348" x="25.167" y="24.894" fill="#72B0E0"></rect><rect width=".871" height="1.348" x="25.167" y="26.435" fill="#72B0E0"></rect><rect width=".871" height="1.348" x="25.167" y="27.977" fill="#72B0E0"></rect><rect width=".871" height="1.348" x="26.158" y="24.894" fill="#72B0E0"></rect><rect width=".871" height="1.348" x="26.158" y="26.435" fill="#72B0E0"></rect><rect width=".871" height="1.348" x="26.158" y="27.977" fill="#72B0E0"></rect><rect width=".871" height="1.348" x="27.149" y="24.894" fill="#72B0E0"></rect><rect width=".871" height="1.348" x="27.149" y="26.435" fill="#72B0E0"></rect><rect width=".871" height="1.348" x="27.149" y="27.977" fill="#72B0E0"></rect></g><path fill="#D25C59" d="M29.1577,32.5949v10.79h-8.35v-10.79C23.5877,31.815,26.3777,31.815,29.1577,32.5949z"></path><rect width="6.33" height="9.95" x="21.818" y="33.435" fill="#EE7373"></rect><circle cx="27.406" cy="38.41" r=".464" fill="#EEEDED"></circle><path fill="#8EC163" d="M10.3797,42.8685c0,0.7593-1.1927,1.1101-1.78,0.4901c-0.2161,0.0785-0.598,0.0762-0.93-0.08
			c-0.8809,0.8156-2.53,0.2955-2.53-0.77c0-1.0235,1.507-1.5372,2.42-0.87c0.6819-0.3751,1.5277-0.1289,1.81,0.42
			C9.4698,42.0942,10.3797,42.0963,10.3797,42.8685z"></path><path fill="#7BA452" d="M8.5877,43.4549c-0.1299,0.0173-0.5289,0.1191-0.9-0.04c-0.9903,0.7877-2.54,0.1023-2.54-0.82
			c0.0419,0.3348,0.2873,0.6254,0.58,0.79c1.0328,0.6641,1.8197-0.2108,1.92-0.2599l0.08,0.04
			c0.4128,0.2223,0.7056,0.0991,0.92,0.11c0.0898,0.101,0.02,0.06,0.12,0.11c0.5218,0.4764,1.4619,0.1827,1.58-0.33
			C9.9374,43.8763,9.0418,43.8777,8.5877,43.4549z"></path><path fill="#8EC163" d="M44.5601,42.8685c0,0.7593-1.1927,1.1101-1.78,0.4901c-0.2161,0.0785-0.598,0.0762-0.93-0.08
			c-0.8809,0.8156-2.53,0.2955-2.53-0.77c0-1.0235,1.507-1.5372,2.42-0.87c0.6819-0.3751,1.5277-0.1289,1.81,0.42
			C43.6502,42.0942,44.5601,42.0963,44.5601,42.8685z"></path><path fill="#7BA452" d="M44.5377,43.0249c-0.0916,0.6403-1.1793,0.9799-1.77,0.43c-0.1256,0.0157-0.5233,0.1215-0.9-0.04
			c-0.5433,0.4322-1.4792,0.4894-2.11-0.03c-0.4759-0.3853-0.4088-0.7799-0.43-0.8799c0.01,0.39,0.26,0.7,0.57,0.8799
			c1.0362,0.6663,1.8299-0.2108,1.93-0.2599c0.1001,0.0288,0.3934,0.2699,1,0.15c0.0898,0.101,0.02,0.06,0.12,0.11
			C43.4583,43.8511,44.4252,43.5866,44.5377,43.0249z"></path><rect width=".6" height="3.37" x="4.718" y="40.015" fill="#A77A4E"></rect><path fill="#8EC163" d="M5.9306,38.0306c0,1.3633-0.4103,2.4628-0.9026,2.4628c-0.1094,0-0.2326-0.0587-0.3283-0.1613
			c-0.3419-0.3518-0.5881-1.246-0.5881-2.3015c0-1.3634,0.4104-2.4775,0.9164-2.4775c0.0136,0,0.0273,0,0.041,0.0146
			C5.5476,35.6117,5.9306,36.7112,5.9306,38.0306z"></path><path fill="#9CCC65" d="M5.6707,37.8839c0,1.3633-0.4103,2.4628-0.9026,2.4628c-0.0274,0-0.0411,0-0.0685-0.0147
			c-0.3419-0.3518-0.5881-1.246-0.5881-2.3015c0-1.3634,0.4104-2.4775,0.9164-2.4775c0.0136,0,0.0273,0,0.041,0.0146
			C5.4108,35.8902,5.6707,36.8138,5.6707,37.8839z"></path><rect width=".6" height="3.37" x="1.638" y="40.015" fill="#A77A4E"></rect><path fill="#8EC163" d="M2.8496,38.0306c0,1.3633-0.4103,2.4628-0.9026,2.4628c-0.1094,0-0.2326-0.0587-0.3283-0.1613
			c-0.3419-0.3518-0.5881-1.246-0.5881-2.3015c0-1.3634,0.4104-2.4775,0.9164-2.4775c0.0136,0,0.0273,0,0.041,0.0146
			C2.4667,35.6117,2.8496,36.7112,2.8496,38.0306z"></path><path fill="#9CCC65" d="M2.5897,37.8839c0,1.3633-0.4103,2.4628-0.9026,2.4628c-0.0274,0-0.0411,0-0.0685-0.0147
			c-0.3419-0.3518-0.5881-1.246-0.5881-2.3015c0-1.3634,0.4104-2.4775,0.9164-2.4775c0.0136,0,0.0273,0,0.041,0.0146
			C2.3299,35.8902,2.5897,36.8138,2.5897,37.8839z"></path><rect width="1.1" height="4.42" x="2.928" y="38.965" fill="#A77A4E"></rect><path fill="#7BA452" d="M5.1522,36.3787c0,1.7842-0.7541,3.223-1.6589,3.223c-0.2011,0-0.4274-0.0768-0.6034-0.2111
			c-0.6284-0.4604-1.0808-1.6307-1.0808-3.0119c0-1.7843,0.7542-3.2423,1.6842-3.2423c0.025,0,0.0502,0,0.0753,0.0191
			C4.4484,33.2131,5.1522,34.652,5.1522,36.3787z"></path><path fill="#8EC163" d="M4.6746,36.1867c0,1.7842-0.7541,3.2231-1.6589,3.2231c-0.0503,0-0.0755,0-0.1258-0.0192
			c-0.6284-0.4604-1.0808-1.6307-1.0808-3.0119c0-1.7843,0.7542-3.2423,1.6842-3.2423c0.025,0,0.0502,0,0.0753,0.0191
			C4.197,33.5776,4.6746,34.7863,4.6746,36.1867z"></path><rect width=".59" height="3.37" x="47.778" y="40.015" fill="#A77A4E"></rect><path fill="#8EC163" d="M48.9823,38.0306c0,1.3633-0.4103,2.4628-0.9026,2.4628c-0.1094,0-0.2326-0.0587-0.3283-0.1613
			c-0.3419-0.3518-0.5881-1.246-0.5881-2.3015c0-1.3634,0.4104-2.4775,0.9164-2.4775c0.0136,0,0.0273,0,0.041,0.0146
			C48.5994,35.6117,48.9823,36.7112,48.9823,38.0306z"></path><path fill="#9CCC65" d="M48.7225,37.8839c0,1.3633-0.4103,2.4628-0.9026,2.4628c-0.0274,0-0.0411,0-0.0685-0.0147
			c-0.3419-0.3518-0.5881-1.246-0.5881-2.3015c0-1.3634,0.4104-2.4775,0.9164-2.4775c0.0136,0,0.0273,0,0.041,0.0146
			C48.4626,35.8902,48.7225,36.8138,48.7225,37.8839z"></path><rect width=".6" height="3.37" x="44.688" y="40.015" fill="#A77A4E"></rect><path fill="#8EC163" d="M45.9014,38.0306c0,1.3633-0.4103,2.4628-0.9026,2.4628c-0.1094,0-0.2326-0.0587-0.3283-0.1613
			c-0.3419-0.3518-0.5881-1.246-0.5881-2.3015c0-1.3634,0.4104-2.4775,0.9164-2.4775c0.0136,0,0.0273,0,0.041,0.0146
			C45.5185,35.6117,45.9014,36.7112,45.9014,38.0306z"></path><path fill="#9CCC65" d="M45.6415,37.8839c0,1.3633-0.4103,2.4628-0.9026,2.4628c-0.0274,0-0.0411,0-0.0685-0.0147
			c-0.3419-0.3518-0.5881-1.246-0.5881-2.3015c0-1.3634,0.4104-2.4775,0.9164-2.4775c0.0136,0,0.0273,0,0.041,0.0146
			C45.3817,35.8902,45.6415,36.8138,45.6415,37.8839z"></path><rect width="1.11" height="4.42" x="45.978" y="38.965" fill="#A77A4E"></rect><path fill="#7BA452" d="M48.2039,36.3787c0,1.7842-0.7541,3.223-1.6589,3.223c-0.2011,0-0.4274-0.0768-0.6034-0.2111
			c-0.6284-0.4604-1.0808-1.6307-1.0808-3.0119c0-1.7843,0.7542-3.2423,1.6842-3.2423c0.025,0,0.0502,0,0.0753,0.0191
			C47.5002,33.2131,48.2039,34.652,48.2039,36.3787z"></path><path fill="#8EC163" d="M47.7263,36.1867c0,1.7842-0.7541,3.2231-1.6589,3.2231c-0.0503,0-0.0755,0-0.1258-0.0192
			c-0.6284-0.4604-1.0808-1.6307-1.0808-3.0119c0-1.7843,0.7542-3.2423,1.6842-3.2423c0.025,0,0.0502,0,0.0753,0.0191
			C47.2488,33.5776,47.7263,34.7863,47.7263,36.1867z"></path><polygon fill="#535352" points="18.145 26.883 17.56 26.447 24.985 16.474 32.403 26.447 31.817 26.882 24.985 17.696"></polygon></svg>