<svg xmlns="http://www.w3.org/2000/svg" viewBox="0 0 32 32" id="house"><path fill="#de1263" d="m23.51 6.91-6.77 9.67A.93.93 0 0 1 16 17h-3.91a1 1 0 0 1-1-1V6.36a1 1 0 0 1 1-1h10.63a1 1 0 0 1 .86.51 1 1 0 0 1-.07 1.04Z"></path><path fill="#333" d="M16 17.5h-3.92a1.47 1.47 0 0 1-1.46-1.5V6.36a1.46 1.46 0 0 1 1.46-1.46h10.64a1.46 1.46 0 0 1 1.3.78 1.44 1.44 0 0 1-.1 1.52l-6.77 9.67a1.41 1.41 0 0 1-1.09.61Zm0-.5ZM12.08 5.9a.45.45 0 0 0-.46.46V16a.47.47 0 0 0 .46.47H16a.46.46 0 0 0 .35-.19l6.75-9.65a.46.46 0 0 0-.38-.72Z"></path><path fill="#4e689b" d="M13.1 6.33V17H1.5V6.33a1 1 0 0 1 1-1h9.66a1 1 0 0 1 .94 1Z"></path><path fill="#333" d="M13.1 17.47H1.5A.5.5 0 0 1 1 17V6.33a1.46 1.46 0 0 1 1.47-1.46h9.66a1.46 1.46 0 0 1 1.47 1.46V17a.5.5 0 0 1-.5.47Zm-11.1-1h10.6V6.33a.47.47 0 0 0-.47-.46H2.47a.47.47 0 0 0-.47.46Z"></path><path fill="#374c81" d="M13.1 6.33V17H7.3V5.37h4.83a1 1 0 0 1 .97.96Z"></path><path fill="#333" d="M13.1 17.47H7.3a.5.5 0 0 1-.5-.5V5.37a.5.5 0 0 1 .5-.5h4.83a1.46 1.46 0 0 1 1.47 1.46V17a.5.5 0 0 1-.5.47Zm-5.3-1h4.8V6.33a.47.47 0 0 0-.47-.46H7.8Z"></path><path fill="#de1263" d="M13 6.85a1 1 0 0 1-.82.45H2.47a1 1 0 0 1-.86-1.4L3.54 2a.94.94 0 0 1 .86-.5h5.8a.94.94 0 0 1 .86.53L13 5.9a1 1 0 0 1 0 .95Z"></path><path fill="#333" d="M12.13 7.8H2.47a1.46 1.46 0 0 1-1.31-2.13l1.93-3.86A1.45 1.45 0 0 1 4.4 1h5.8a1.45 1.45 0 0 1 1.31.81l1.93 3.86a1.46 1.46 0 0 1-.06 1.43 1.46 1.46 0 0 1-1.25.7Zm.83-1ZM4.4 2a.46.46 0 0 0-.4.25L2.05 6.12a.52.52 0 0 0 0 .47.48.48 0 0 0 .4.21h9.66a.48.48 0 0 0 .4-.21.5.5 0 0 0 0-.46l-1.9-3.87A.45.45 0 0 0 10.2 2Z"></path><circle cx="7.3" cy="11.17" r="2.9" fill="#ff9f00"></circle><path fill="#333" d="M7.3 14.57a3.4 3.4 0 1 1 3.4-3.4 3.41 3.41 0 0 1-3.4 3.4Zm0-5.8a2.4 2.4 0 1 0 2.4 2.4 2.4 2.4 0 0 0-2.4-2.4Z"></path><path fill="#fe3345" d="M30.4 16.44a.85.85 0 0 1-.76.53H15.89a.85.85 0 0 1-.76-.53 1.05 1.05 0 0 1 .06-1l6.87-9.67a.82.82 0 0 1 .79-.38.76.76 0 0 1 .62.38l6.88 9.67a1.05 1.05 0 0 1 .05 1Z"></path><path fill="#333" d="M29.64 17.47H15.89a1.37 1.37 0 0 1-1.22-.82 1.56 1.56 0 0 1 .1-1.47l6.88-9.69a1.35 1.35 0 0 1 1.25-.59 1.32 1.32 0 0 1 1 .62l6.85 9.64a1.55 1.55 0 0 1 .11 1.49 1.36 1.36 0 0 1-1.22.82ZM22.77 5.89a.35.35 0 0 0-.29.16l-6.89 9.69a.62.62 0 0 0 0 .5.37.37 0 0 0 .31.23h13.74a.37.37 0 0 0 .31-.23.59.59 0 0 0 0-.52l-6.88-9.65a.37.37 0 0 0-.26-.18Zm7.63 10.55Z"></path><path fill="#374c81" d="M17 16v14.5H1.5V15H16a1 1 0 0 1 1 1Z"></path><path fill="#333" d="M17 31H1.5a.5.5 0 0 1-.5-.5V15a.5.5 0 0 1 .5-.5H16a1.47 1.47 0 0 1 1.47 1.5v14.5a.5.5 0 0 1-.47.5ZM2 30h14.47V16a.47.47 0 0 0-.47-.47H2Z"></path><path fill="#4e689b" d="M30.5 15.81V30.5H15V15.81a.78.78 0 0 1 .78-.78h13.95a.78.78 0 0 1 .77.78Z"></path><path fill="#333" d="M30.5 31H15a.5.5 0 0 1-.5-.5V15.81a1.28 1.28 0 0 1 1.28-1.28h13.95A1.27 1.27 0 0 1 31 15.81V30.5a.5.5 0 0 1-.5.5Zm-15-1H30V15.81a.28.28 0 0 0-.27-.28H15.81a.29.29 0 0 0-.28.28Z"></path><path fill="#d1f6ff" d="M4.4 22.77h9.67v7.73H4.4z"></path><path fill="#333" d="M14.07 31H4.4a.5.5 0 0 1-.5-.5v-7.73a.5.5 0 0 1 .5-.5h9.67a.5.5 0 0 1 .5.5v7.73a.5.5 0 0 1-.5.5ZM4.9 30h8.67v-6.73H4.9Z"></path><path fill="#7fb3d6" d="M14.07 19.87v4.83H4.4v-4.83a1 1 0 0 1 1-1h7.7a1 1 0 0 1 .97 1Z"></path><path fill="#333" d="M14.07 25.2H4.4a.5.5 0 0 1-.5-.5v-4.83a1.47 1.47 0 0 1 1.47-1.47h7.73a1.47 1.47 0 0 1 1.47 1.47v4.83a.5.5 0 0 1-.5.5Zm-9.17-1h8.67v-4.33a.47.47 0 0 0-.47-.47H5.37a.47.47 0 0 0-.47.47Z"></path><path fill="#ff9f00" d="M27.12 22.77v7.73h-8.7v-7.73a1 1 0 0 1 1-1h6.77a1 1 0 0 1 .93 1Z"></path><path fill="#333" d="M27.12 31h-8.7a.5.5 0 0 1-.5-.5v-7.73a1.47 1.47 0 0 1 1.46-1.47h6.77a1.47 1.47 0 0 1 1.47 1.47v7.73a.5.5 0 0 1-.5.5Zm-8.2-1h7.7v-7.23a.47.47 0 0 0-.47-.47h-6.77a.47.47 0 0 0-.46.47Z"></path></svg>