<svg xmlns="http://www.w3.org/2000/svg" enable-background="new 0 0 68 68" viewBox="0 0 68 68" id="sprayer-bottle"><polyline fill="#acdae7" stroke="#26385f" stroke-linecap="round" stroke-linejoin="round" stroke-width="2" points="43.1 3.4 47.3 1.8 48.7 5.1 44.8 7.4"></polyline><path fill="#acdae7" stroke="#26385f" stroke-linecap="round" stroke-linejoin="round" stroke-width="2" d="M22.9,11.4h3.9c0,0,6.7-7.2,16.2-8.4l2,5l-4.4,6.3L34,15.7v4.4h-5.8v-5.5L22.8,14L22.9,11.4z"></path><path fill="#acdae7" stroke="#26385f" stroke-linecap="round" stroke-linejoin="round" stroke-width="2" d="M44.3,9c0,0,3.9,7,8.8,11.1l-1.5,1.8c0,0-8.2-4.9-10-9.1L44.3,9z"></path><rect width="9.9" height="5.9" x="26" y="20.1" fill="#8288a1" stroke="#26385f" stroke-linecap="round" stroke-linejoin="round" stroke-width="2"></rect><path fill="#f4bb79" d="M45.9,45.3c-1.6-9.1-9.3-16.1-9.3-16.1V26H24.9v3.2c0,0-7.7,7-9.3,16.1c-1.3,7.1-0.5,13.6,1.1,17.8
		c0.7,1.8,2.4,2.9,4.3,2.9h19.5c1.9,0,3.6-1.2,4.3-2.9C46.4,58.9,47.1,52.4,45.9,45.3z"></path><path fill="#ecaa63" d="M31.4,26v3.2c0,0-7.7,7-9.3,16.1c-1.3,7.1-0.5,13.6,1.1,17.8c0.7,1.8,2.4,2.9,4.3,2.9H21
		c-1.9,0-3.6-1.2-4.3-2.9c-1.7-4.2-2.4-10.7-1.2-17.8c1.6-9.1,9.3-16.1,9.3-16.1V26H31.4z"></path><path fill="none" stroke="#26385f" stroke-linecap="round" stroke-linejoin="round" stroke-width="2" d="M45.9,45.3c-1.6-9.1-9.3-16.1-9.3-16.1V26H24.9v3.2c0,0-7.7,7-9.3,16.1c-1.3,7.1-0.5,13.6,1.1,17.8
		c0.7,1.8,2.4,2.9,4.3,2.9h19.5c1.9,0,3.6-1.2,4.3-2.9C46.4,58.9,47.1,52.4,45.9,45.3z"></path></svg>