<svg xmlns="http://www.w3.org/2000/svg" xmlns:xlink="http://www.w3.org/1999/xlink" viewBox="0 0 64 64"><defs><linearGradient id="a" x1="19.65" x2="19.65" y1="33" y2="52.81" gradientUnits="userSpaceOnUse"><stop offset="0" stop-color="#42bfff"/><stop offset="1" stop-color="#1174ac"/></linearGradient><linearGradient id="b" x1="8" x2="8" y1="25" y2="31" xlink:href="#a"/><linearGradient id="c" x1="33" x2="33" y1="11" y2="27.09" gradientUnits="userSpaceOnUse"><stop offset="0" stop-color="#ad582d"/><stop offset="1" stop-color="#6d3c23"/></linearGradient><linearGradient id="d" x1="34" x2="34" y1="45.19" y2="25" gradientUnits="userSpaceOnUse"><stop offset="0" stop-color="#009e77"/><stop offset="1" stop-color="#00d291"/></linearGradient><linearGradient id="e" x1="32" x2="32" y1="53" y2="11" gradientUnits="userSpaceOnUse"><stop offset="0" stop-color="#000406"/><stop offset="1" stop-color="#001521"/></linearGradient></defs><g data-name="Layer 2"><circle cx="54" cy="46" r="7" fill="#053541"/><path fill="url(#a)" d="m27.65 39-4.22-1.55a1 1 0 0 0-1 .2L17 42.6v-7.05a1 1 0 0 0-.64-.93l-4-1.55A1 1 0 0 0 11 34v16.09a2.71 2.71 0 0 0 4.55 2L28 40.66a1 1 0 0 0-.35-1.66Z"/><path fill="url(#b)" d="M12 25H6a3 3 0 0 0 0 6h6a1 1 0 0 0 1-1v-4a1 1 0 0 0-1-1Z"/><path fill="url(#c)" d="M52.84 25.75a5 5 0 0 0-3.91-3.66 6 6 0 0 0-9-4.22 6.49 6.49 0 0 0-7.43-2.54A7 7 0 0 0 19 17.62a5.49 5.49 0 0 0-3 4.81 5 5 0 0 0-2.85 3.36 1 1 0 0 0 .18.86c.64.81-.64.24 38.55.35a1 1 0 0 0 .96-1.25Z"/><path fill="url(#d)" d="M56 25H12a1 1 0 0 0-1 1v8a1 1 0 0 0 .64.93l24.94 9.66a9 9 0 0 0 10.8-3.49l9.46-14.56A1 1 0 0 0 56 25Z"/></g><path fill="url(#e)" d="m48.92 41.19-1.08-.81 9-13.84A1 1 0 0 0 56 25h-3.42a5 5 0 0 0-3.65-2.91 6 6 0 0 0-9-4.22 6.49 6.49 0 0 0-7.43-2.54A7 7 0 0 0 19 17.62a5.49 5.49 0 0 0-3 4.81A4.93 4.93 0 0 0 13.43 25H6a3 3 0 0 0 0 6h5v19.09a2.71 2.71 0 0 0 4.55 2l12-11 9.06 3.51A9.06 9.06 0 0 0 46.69 42l1.08.81a7 7 0 1 0 1.15-1.64ZM17.3 24.09a1.09 1.09 0 0 0 .74-1.2 3.46 3.46 0 0 1 2.31-3.68 1 1 0 0 0 .66-1V18a5 5 0 0 1 9.87-1.1 1 1 0 0 0 1.46.66 4.5 4.5 0 0 1 6.32 2.2 1 1 0 0 0 1.61.34A4 4 0 0 1 47 23a1 1 0 0 0 1 1 3 3 0 0 1 2.23 1H15.79a3.08 3.08 0 0 1 1.51-.91ZM6 29a1 1 0 0 1 0-2h5v2Zm8.2 21.62a.72.72 0 0 1-1.2-.53V35.46l2 .77v8.65a1 1 0 0 0 1.68.74l6.68-6.15 2.08.8ZM17 37l4.28 1.66L17 42.6Zm20.3 5.71L13 33.31V27h41.16L45.7 40a7 7 0 0 1-8.4 2.72ZM54 51a5 5 0 0 1-4.6-7l2.6 2a2 2 0 1 0 1-1.73l-2.48-1.86A5 5 0 1 1 54 51Z" data-name="Layer 3"/></svg>