<svg xmlns="http://www.w3.org/2000/svg" viewBox="0 0 64 64"><path fill="#b72c3d" d="M45.968,34H50a4,4,0,0,1,4,4V50a4,4,0,0,1-4,4H46Z"/><rect width="1" height="20" x="46" y="34" fill="#9e2338"/><path fill="#12894d" d="M42 29a1 1 0 0 1-.9-.553l-2-4a1 1 0 0 1 1.79-.894l2 4A1 1 0 0 1 42 29zM6 36a1 1 0 0 1-.894-1.447l3-6a1 1 0 1 1 1.79.894l-3 6A1 1 0 0 1 6 36z"/><path fill="#b3b3b3" d="M46.008,41l8.673-19.295a1.2,1.2,0,0,1,1.1-.709H61V17H54.87A2.947,2.947,0,0,0,52.2,18.693L41.473,41.526"/><path fill="#d33743" d="M46,40.97V55a2.006,2.006,0,0,1-2,2H10V51a2.006,2.006,0,0,1,2-2H34l9.1-9.1a1.723,1.723,0,0,1,2.68.32A1.35,1.35,0,0,1,46,40.97Z"/><path fill="#d84154" d="M46,42.97V55a2.006,2.006,0,0,1-2,2H12V53a2.039,2.039,0,0,1,2.06-2H36.73l9.04-8.78A1.282,1.282,0,0,1,46,42.97Z"/><circle cx="10" cy="57" r="4" fill="gray"/><polygon fill="#999" points="32 41 32 49 14 49 14 45 22 45 22 41 32 41"/><polygon fill="#bfbfbf" points="34 37 34 41 22 41 22 45 12 45 12 42.03 18 37 34 37"/><polygon fill="#cccaca" points="34 37 34 41 22 41 22 45 15 45 15 42.03 21 37 34 37"/><rect width="4" height="2" x="25" y="44" fill="#b3b3b3"/><rect width="2" height="2" x="9" y="56" fill="#ccc"/><circle cx="38" cy="57" r="4" fill="gray"/><rect width="2" height="2" x="37" y="56" fill="#ccc"/><path fill="#5bce66" d="M7,33H7V31a6,6,0,0,1,6-6h0v2A6,6,0,0,1,7,33Z"/><path fill="#12894d" d="M19,14a1,1,0,0,1-.894-1.447l3-6a1,1,0,1,1,1.79.894l-3,6A1,1,0,0,1,19,14Z"/><path fill="#5bce66" d="M41 26h0V24a6 6 0 0 0-6-6h0v2A6 6 0 0 0 41 26zM20 11h0V9a6 6 0 0 1 6-6h0V5A6 6 0 0 1 20 11z"/><rect width="60" height="2" x="2" y="60" fill="#006837"/><rect width="4" height="2" x="25" y="44"/><rect width="2" height="2" x="9" y="56"/><rect width="2" height="2" x="37" y="56"/><path d="M24 62V60H13.974a4.954 4.954 0 0 0 .925-2H33.1a4.954 4.954 0 0 0 .925 2H26v2H62V60H41.974a4.954 4.954 0 0 0 .925-2H44a3 3 0 0 0 3-3h3a5.006 5.006 0 0 0 5-5V43.048H53V50a3 3 0 0 1-3 3H47V41.238L49.8 35H50a3 3 0 0 1 3 3v3h2V38a4.991 4.991 0 0 0-4.328-4.932l4.921-10.949A.2.2 0 0 1 55.777 22H61a1 1 0 0 0 1-1V17a1 1 0 0 0-1-1H54.871A3.962 3.962 0 0 0 51.3 18.268L40.642 40.944 33.586 48H33V42h1a1 1 0 0 0 1-1V37a1 1 0 0 0-1-1H18a1 1 0 0 0-.643.234l-6 5.032a1 1 0 0 0-.357.766V45a1 1 0 0 0 1 1h1v2H12a3 3 0 0 0-3 3v1.1A5.009 5.009 0 0 0 5 57a4.948 4.948 0 0 0 1.026 3H2v2zm11-5a3 3 0 1 1 3 3A3 3 0 0 1 35 57zM53.11 19.118A1.953 1.953 0 0 1 54.871 18H60v2H55.777a2.205 2.205 0 0 0-2.008 1.3l-7.9 17.578a2.667 2.667 0 0 0-1.829-.457zM13 42.5L18.364 38H33v2H22a1 1 0 0 0-1 1v3H13zM15 46h7a1 1 0 0 0 1-1V42h8v6H15zm-3 4H34a1 1 0 0 0 .707-.293l9.1-9.1a.741.741 0 0 1 .81-.15A.573.573 0 0 1 45 41V55a1 1 0 0 1-1 1H42.9a5 5 0 0 0-9.8 0H14.9A5.016 5.016 0 0 0 11 52.1V51A1 1 0 0 1 12 50zM7 57a3 3 0 1 1 3 3A3 3 0 0 1 7 57zM6 31v1.764l-.895 1.789a1 1 0 0 0 1.79.894l.739-1.479A7.007 7.007 0 0 0 14 27V25a1 1 0 0 0-1-1A7.008 7.008 0 0 0 6 31zm6-4a5.008 5.008 0 0 1-4 4.9V31a5.008 5.008 0 0 1 4-4.9zM19 9v1.764l-.895 1.789a1 1 0 0 0 1.79.894l.739-1.479A7.007 7.007 0 0 0 27 5V3a1 1 0 0 0-1-1A7.008 7.008 0 0 0 19 9zm6-4a5.008 5.008 0 0 1-4 4.9V9a5.008 5.008 0 0 1 4-4.9z"/><path d="M35,17a1,1,0,0,0-1,1v2a7.007,7.007,0,0,0,6.366,6.968l.739,1.479a1,1,0,1,0,1.79-.894L42,25.764V24A7.008,7.008,0,0,0,35,17Zm5,7.9A5.008,5.008,0,0,1,36,20v-.9A5.008,5.008,0,0,1,40,24Z"/></svg>